<svg width="32" height="32" viewBox="0 0 32 32" fill="none" xmlns="http://www.w3.org/2000/svg">
<g clip-path="url(#clip0_168_339)">
<path fill-rule="evenodd" clip-rule="evenodd" d="M28 0H4C2.93913 0 1.92172 0.421427 1.17157 1.17157C0.421427 1.92172 0 2.93913 0 4L0 28C0 29.0609 0.421427 30.0783 1.17157 30.8284C1.92172 31.5786 2.93913 32 4 32H28C29.0609 32 30.0783 31.5786 30.8284 30.8284C31.5786 30.0783 32 29.0609 32 28V4C32 2.93913 31.5786 1.92172 30.8284 1.17157C30.0783 0.421427 29.0609 0 28 0V0ZM2 7.714C2 6.768 2.896 6 4 6H28C29.104 6 30 6.768 30 7.714V28.286C30 29.232 29.104 30 28 30H4C2.896 30 2 29.232 2 28.286V7.714Z" fill="#333333"/>
<path fill-rule="evenodd" clip-rule="evenodd" d="M13 14C13.5304 14 14.0391 13.7893 14.4142 13.4142C14.7893 13.0391 15 12.5304 15 12C15 11.4696 14.7893 10.9609 14.4142 10.5858C14.0391 10.2107 13.5304 10 13 10C12.4696 10 11.9609 10.2107 11.5858 10.5858C11.2107 10.9609 11 11.4696 11 12C11 12.5304 11.2107 13.0391 11.5858 13.4142C11.9609 13.7893 12.4696 14 13 14ZM19 14C19.5304 14 20.0391 13.7893 20.4142 13.4142C20.7893 13.0391 21 12.5304 21 12C21 11.4696 20.7893 10.9609 20.4142 10.5858C20.0391 10.2107 19.5304 10 19 10C18.4696 10 17.9609 10.2107 17.5858 10.5858C17.2107 10.9609 17 11.4696 17 12C17 12.5304 17.2107 13.0391 17.5858 13.4142C17.9609 13.7893 18.4696 14 19 14ZM25 14C25.5304 14 26.0391 13.7893 26.4142 13.4142C26.7893 13.0391 27 12.5304 27 12C27 11.4696 26.7893 10.9609 26.4142 10.5858C26.0391 10.2107 25.5304 10 25 10C24.4696 10 23.9609 10.2107 23.5858 10.5858C23.2107 10.9609 23 11.4696 23 12C23 12.5304 23.2107 13.0391 23.5858 13.4142C23.9609 13.7893 24.4696 14 25 14ZM7 20C7.53043 20 8.03914 19.7893 8.41421 19.4142C8.78929 19.0391 9 18.5304 9 18C9 17.4696 8.78929 16.9609 8.41421 16.5858C8.03914 16.2107 7.53043 16 7 16C6.46957 16 5.96086 16.2107 5.58579 16.5858C5.21071 16.9609 5 17.4696 5 18C5 18.5304 5.21071 19.0391 5.58579 19.4142C5.96086 19.7893 6.46957 20 7 20ZM13 20C13.5304 20 14.0391 19.7893 14.4142 19.4142C14.7893 19.0391 15 18.5304 15 18C15 17.4696 14.7893 16.9609 14.4142 16.5858C14.0391 16.2107 13.5304 16 13 16C12.4696 16 11.9609 16.2107 11.5858 16.5858C11.2107 16.9609 11 17.4696 11 18C11 18.5304 11.2107 19.0391 11.5858 19.4142C11.9609 19.7893 12.4696 20 13 20ZM19 20C19.5304 20 20.0391 19.7893 20.4142 19.4142C20.7893 19.0391 21 18.5304 21 18C21 17.4696 20.7893 16.9609 20.4142 16.5858C20.0391 16.2107 19.5304 16 19 16C18.4696 16 17.9609 16.2107 17.5858 16.5858C17.2107 16.9609 17 17.4696 17 18C17 18.5304 17.2107 19.0391 17.5858 19.4142C17.9609 19.7893 18.4696 20 19 20ZM25 20C25.5304 20 26.0391 19.7893 26.4142 19.4142C26.7893 19.0391 27 18.5304 27 18C27 17.4696 26.7893 16.9609 26.4142 16.5858C26.0391 16.2107 25.5304 16 25 16C24.4696 16 23.9609 16.2107 23.5858 16.5858C23.2107 16.9609 23 17.4696 23 18C23 18.5304 23.2107 19.0391 23.5858 19.4142C23.9609 19.7893 24.4696 20 25 20ZM7 26C7.53043 26 8.03914 25.7893 8.41421 25.4142C8.78929 25.0391 9 24.5304 9 24C9 23.4696 8.78929 22.9609 8.41421 22.5858C8.03914 22.2107 7.53043 22 7 22C6.46957 22 5.96086 22.2107 5.58579 22.5858C5.21071 22.9609 5 23.4696 5 24C5 24.5304 5.21071 25.0391 5.58579 25.4142C5.96086 25.7893 6.46957 26 7 26ZM13 26C13.5304 26 14.0391 25.7893 14.4142 25.4142C14.7893 25.0391 15 24.5304 15 24C15 23.4696 14.7893 22.9609 14.4142 22.5858C14.0391 22.2107 13.5304 22 13 22C12.4696 22 11.9609 22.2107 11.5858 22.5858C11.2107 22.9609 11 23.4696 11 24C11 24.5304 11.2107 25.0391 11.5858 25.4142C11.9609 25.7893 12.4696 26 13 26ZM19 26C19.5304 26 20.0391 25.7893 20.4142 25.4142C20.7893 25.0391 21 24.5304 21 24C21 23.4696 20.7893 22.9609 20.4142 22.5858C20.0391 22.2107 19.5304 22 19 22C18.4696 22 17.9609 22.2107 17.5858 22.5858C17.2107 22.9609 17 23.4696 17 24C17 24.5304 17.2107 25.0391 17.5858 25.4142C17.9609 25.7893 18.4696 26 19 26Z" fill="#333333"/>
</g>
<defs>
<clipPath id="clip0_168_339">
<rect width="32" height="32" fill="white"/>
</clipPath>
</defs>
</svg>
